<svg width="318" height="56" viewBox="0 0 318 56" fill="none" xmlns="http://www.w3.org/2000/svg">
<path d="M84.875 7.9H89.39V38H85.434V14.479L75.587 30.862H75.071L65.224 14.522V38H61.225V7.9H65.74L75.329 23.81L84.875 7.9ZM113.242 20.198V16.5H116.983V38H113.242V34.302C111.407 37.14 108.698 38.559 105.115 38.559C102.076 38.559 99.5102 37.4697 97.4176 35.291C95.2962 33.0837 94.2356 30.4033 94.2356 27.25C94.2356 24.1253 95.2962 21.4593 97.4176 19.252C99.5389 17.0447 102.105 15.941 105.115 15.941C108.698 15.941 111.407 17.36 113.242 20.198ZM105.588 34.947C107.766 34.947 109.587 34.216 111.049 32.754C112.511 31.2347 113.242 29.4 113.242 27.25C113.242 25.0713 112.511 23.251 111.049 21.789C109.587 20.2983 107.766 19.553 105.588 19.553C103.438 19.553 101.632 20.2983 100.17 21.789C98.7076 23.251 97.9766 25.0713 97.9766 27.25C97.9766 29.4 98.7076 31.2347 100.17 32.754C101.632 34.216 103.438 34.947 105.588 34.947ZM123.554 11.34C123.554 11.9707 123.339 12.501 122.909 12.931C122.479 13.361 121.948 13.576 121.318 13.576C120.687 13.576 120.157 13.361 119.726 12.931C119.268 12.501 119.038 11.9707 119.038 11.34C119.038 10.7093 119.268 10.179 119.726 9.749C120.157 9.29033 120.687 9.061 121.318 9.061C121.948 9.061 122.479 9.29033 122.909 9.749C123.339 10.179 123.554 10.7093 123.554 11.34ZM130.004 11.34C130.004 11.9707 129.789 12.501 129.359 12.931C128.929 13.361 128.398 13.576 127.768 13.576C127.137 13.576 126.592 13.361 126.133 12.931C125.703 12.501 125.488 11.9707 125.488 11.34C125.488 10.7093 125.703 10.179 126.133 9.749C126.592 9.29033 127.137 9.061 127.768 9.061C128.398 9.061 128.929 9.29033 129.359 9.749C129.789 10.179 130.004 10.7093 130.004 11.34ZM126.392 38H122.65V16.5H126.392V38ZM149.901 20.198V16.5H153.642V38H149.901V34.302C148.066 37.14 145.357 38.559 141.774 38.559C138.735 38.559 136.169 37.4697 134.077 35.291C131.955 33.0837 130.895 30.4033 130.895 27.25C130.895 24.1253 131.955 21.4593 134.077 19.252C136.198 17.0447 138.764 15.941 141.774 15.941C145.357 15.941 148.066 17.36 149.901 20.198ZM142.247 34.947C144.425 34.947 146.246 34.216 147.708 32.754C149.17 31.2347 149.901 29.4 149.901 27.25C149.901 25.0713 149.17 23.251 147.708 21.789C146.246 20.2983 144.425 19.553 142.247 19.553C140.097 19.553 138.291 20.2983 136.829 21.789C135.367 23.251 134.636 25.0713 134.636 27.25C134.636 29.4 135.367 31.2347 136.829 32.754C138.291 34.216 140.097 34.947 142.247 34.947ZM194.527 38H190.27L187.819 31.249H174.274L171.823 38H167.566L178.789 7.9H183.304L194.527 38ZM181.025 12.673L175.65 27.508H186.443L181.025 12.673ZM215.032 20.198V16.5H218.73V37.097C218.73 40.279 217.655 42.7443 215.505 44.493C213.326 46.2703 210.746 47.159 207.765 47.159C205.357 47.159 203.278 46.7003 201.53 45.783C199.781 44.8943 198.462 43.6043 197.574 41.913L200.842 40.064C202.017 42.472 204.353 43.676 207.851 43.676C210.087 43.676 211.835 43.0883 213.097 41.913C214.387 40.7377 215.032 39.1323 215.032 37.097V34.044C213.14 36.9107 210.445 38.344 206.948 38.344C203.852 38.344 201.257 37.2547 199.165 35.076C197.043 32.8687 195.983 30.217 195.983 27.121C195.983 24.025 197.043 21.3877 199.165 19.209C201.257 17.0303 203.852 15.941 206.948 15.941C210.474 15.941 213.168 17.36 215.032 20.198ZM215.032 27.121C215.032 24.971 214.301 23.165 212.839 21.703C211.377 20.241 209.556 19.51 207.378 19.51C205.199 19.51 203.379 20.241 201.917 21.703C200.455 23.165 199.724 24.971 199.724 27.121C199.724 29.2997 200.455 31.12 201.917 32.582C203.379 34.044 205.199 34.775 207.378 34.775C209.556 34.775 211.377 34.044 212.839 32.582C214.301 31.12 215.032 29.2997 215.032 27.121ZM245.038 28.97H227.021C227.393 30.862 228.268 32.3527 229.644 33.442C231.02 34.5027 232.74 35.033 234.804 35.033C237.642 35.033 239.706 33.9867 240.996 31.894L244.178 33.7C242.056 36.9393 238.903 38.559 234.718 38.559C231.335 38.559 228.554 37.4983 226.376 35.377C224.254 33.1983 223.194 30.4893 223.194 27.25C223.194 23.982 224.24 21.2873 226.333 19.166C228.425 17.016 231.134 15.941 234.46 15.941C237.613 15.941 240.179 17.059 242.157 19.295C244.163 21.4737 245.167 24.1397 245.167 27.293C245.167 27.8377 245.124 28.3967 245.038 28.97ZM234.46 19.467C232.482 19.467 230.819 20.026 229.472 21.144C228.153 22.262 227.336 23.7813 227.021 25.702H241.383C241.067 23.724 240.279 22.1903 239.018 21.101C237.756 20.0117 236.237 19.467 234.46 19.467ZM260.174 15.941C262.697 15.941 264.718 16.7437 266.237 18.349C267.756 19.9257 268.516 22.0757 268.516 24.799V38H264.775V25.014C264.775 23.294 264.302 21.9467 263.356 20.972C262.41 19.9973 261.106 19.51 259.443 19.51C257.522 19.51 256.003 20.112 254.885 21.316C253.767 22.4913 253.208 24.2543 253.208 26.605V38H249.467V16.5H253.208V19.596C254.699 17.1593 257.021 15.941 260.174 15.941ZM283.843 38.559C280.604 38.559 277.909 37.484 275.759 35.334C273.609 33.1553 272.534 30.4607 272.534 27.25C272.534 24.0393 273.609 21.359 275.759 19.209C277.909 17.0303 280.604 15.941 283.843 15.941C285.965 15.941 287.871 16.457 289.562 17.489C291.254 18.4923 292.515 19.854 293.346 21.574L290.207 23.38C289.663 22.2333 288.817 21.316 287.67 20.628C286.552 19.94 285.277 19.596 283.843 19.596C281.693 19.596 279.887 20.327 278.425 21.789C276.992 23.2797 276.275 25.1 276.275 27.25C276.275 29.3713 276.992 31.1773 278.425 32.668C279.887 34.13 281.693 34.861 283.843 34.861C285.277 34.861 286.567 34.5313 287.713 33.872C288.86 33.184 289.734 32.2667 290.336 31.12L293.518 32.969C292.572 34.689 291.239 36.0507 289.519 37.054C287.799 38.0573 285.907 38.559 283.843 38.559ZM306.069 33.356L312.261 16.5H316.26L307.488 39.333C306.542 41.7697 305.238 43.6187 303.575 44.88C301.941 46.17 300.063 46.7433 297.942 46.6V43.117C300.579 43.3177 302.514 41.8557 303.747 38.731L304.134 37.914L294.76 16.5H298.759L306.069 33.356Z" fill="white"/>
<path d="M5.5482 9.75148C3.5169 11.339 2.08038 15.1884 1.61603 16.9146C4.73804 17.7772 11.0979 19.5247 11.5613 19.6138C12.1406 19.7253 12.7931 20.2025 12.6526 21.0175C12.5401 21.6696 11.8696 21.9115 11.5484 21.951L0.909622 22.6144C0.603834 25.0818 2.1747 28.7832 2.99836 30.3256C5.43242 28.8699 10.8979 25.4776 13.2871 23.5539C15.6764 21.6301 14.7052 19.3428 13.921 18.4396L5.5482 9.75148Z" fill="white"/>
<path d="M29.1637 9.75148C31.195 11.339 32.6315 15.1884 33.0959 16.9146C29.9739 17.7772 23.614 19.5247 23.1506 19.6138C22.5713 19.7253 21.9188 20.2025 22.0593 21.0175C22.1718 21.6696 22.8423 21.9115 23.1635 21.951L33.8023 22.6144C34.1081 25.0818 32.5372 28.7832 31.7135 30.3256C29.2795 28.8699 23.814 25.4776 21.4248 23.5539C19.0355 21.6301 20.0067 19.3428 20.7909 18.4396L29.1637 9.75148Z" fill="white"/>
<path d="M27.8853 34.8283C26.06 36.6489 22.0632 37.6011 20.2929 37.8496C19.8209 34.6452 18.8689 28.1187 18.8374 27.6478C18.7981 27.0593 18.4047 26.353 17.5786 26.3922C16.9177 26.4236 16.5951 27.0593 16.5164 27.3732L14.5495 37.8496C12.0633 37.8496 8.58313 35.8354 7.15383 34.8283C8.89784 32.5918 12.9366 27.5851 15.1396 25.4505C17.3425 23.316 19.4931 24.5611 20.2929 25.4505L27.8853 34.8283Z" fill="white"/>
<path d="M12.5943 6.61957C15.583 5.80459 18.7276 5.72896 21.7573 6.39919L22.3017 6.51963L19.3542 15.0782L18.2277 18.65C18.1488 18.9002 17.9181 19.0711 17.6555 19.0738C17.3798 19.0766 17.1315 18.9054 17.0358 18.6464L12.5943 6.61957Z" fill="white"/>
</svg>
